<?xml version="1.0" encoding="UTF-8" standalone="no"?><!DOCTYPE svg PUBLIC "-//W3C//DTD SVG 1.1//EN" "http://www.w3.org/Graphics/SVG/1.1/DTD/svg11.dtd"><svg width="100%" height="100%" viewBox="0 0 45 82" version="1.1" xmlns="http://www.w3.org/2000/svg" xmlns:xlink="http://www.w3.org/1999/xlink" xml:space="preserve" xmlns:serif="http://www.serif.com/" style="fill-rule:evenodd;clip-rule:evenodd;stroke-linejoin:round;stroke-miterlimit:2;"><g><g transform="matrix(0.383547,0,0,0.311925,3.67433,77.3215)"><g transform="matrix(269.089,0,0,269.089,0,0)"><path d="M0.008,-0.6l0.115,0l0,0.6l0.11,-0l0,-0.6l0.115,0l0,-0.1l-0.34,-0l0,0.1Z" style="fill:#8739ff;fill-rule:nonzero;"/></g><path d="M-9.58,-161.453l0,-26.909c0,-7.968 5.253,-14.427 11.733,-14.427l91.49,0c6.48,0 11.733,6.459 11.733,14.427l-0,26.909c-0,7.967 -5.253,14.426 -11.733,14.426c0,0 -19.213,0 -19.213,0l0,147.027c0,7.968 -5.253,14.427 -11.732,14.427l-29.6,-0c-6.48,-0 -11.733,-6.459 -11.733,-14.427l0,-147.027l-19.212,0c-6.48,0 -11.733,-6.459 -11.733,-14.426Zm11.733,-0l30.945,-0l-0,161.453l29.6,0l-0,-161.453l30.945,-0l0,-26.909l-91.49,-0l-0,26.909Z"/></g><g transform="matrix(0.244183,0,0,0.221041,9.03546,29.6005)"><g transform="matrix(269.089,0,0,269.089,0,0)"><path d="M0.06,-0.282c0.032,-0.046 0.045,-0.057 0.066,-0.057c0.015,0 0.03,0.006 0.063,0.028c0.038,0.025 0.059,0.033 0.08,0.033c0.044,0 0.077,-0.024 0.119,-0.086l-0.052,-0.054c-0.034,0.047 -0.045,0.057 -0.066,0.057c-0.015,0 -0.03,-0.006 -0.063,-0.028c-0.038,-0.025 -0.059,-0.033 -0.08,-0.033c-0.042,0 -0.075,0.025 -0.119,0.09l0.052,0.05Z" style="fill:#ff6400;fill-rule:nonzero;"/></g><path d="M70.967,-118.65c1.412,-1.736 3.313,-4.136 5.05,-6.539c3.212,-4.439 7.957,-7.194 13.089,-7.597c5.131,-0.403 10.182,1.581 13.93,5.474l13.993,14.53c6.835,7.098 7.753,18.735 2.132,27.031c-16.152,23.845 -29.854,31.302 -46.776,31.302c-8.049,0 -16.391,-2.164 -30.957,-11.746c-0.031,-0.021 -0.061,-0.041 -0.092,-0.062c-2.085,-1.389 -4.264,-2.643 -5.83,-3.502c-1.339,1.664 -3.155,3.991 -4.748,6.281c-3.097,4.452 -7.721,7.293 -12.779,7.852c-5.057,0.559 -10.099,-1.215 -13.933,-4.901l-13.993,-13.455c-7.277,-6.997 -8.437,-19.012 -2.659,-27.547c16.843,-24.883 30.703,-32.385 46.78,-32.385c8.05,0 16.392,2.165 30.957,11.747c0.031,0.02 0.062,0.041 0.092,0.061c2.047,1.365 4.185,2.598 5.744,3.456Zm-54.822,42.767c8.611,-12.378 12.109,-15.338 17.76,-15.338c4.037,-0 8.073,1.614 16.953,7.534c10.225,6.728 15.876,8.88 21.527,8.88c11.84,0 20.72,-6.458 32.022,-23.141l-13.993,-14.531c-9.149,12.647 -12.109,15.338 -17.76,15.338c-4.036,-0 -8.073,-1.615 -16.953,-7.535c-10.225,-6.727 -15.876,-8.88 -21.527,-8.88c-11.301,0 -20.181,6.728 -32.021,24.218l13.992,13.455Z"/></g></g></svg>