<?xml version="1.0" encoding="UTF-8" standalone="no"?><!DOCTYPE svg PUBLIC "-//W3C//DTD SVG 1.1//EN" "http://www.w3.org/Graphics/SVG/1.1/DTD/svg11.dtd"><svg width="100%" height="100%" viewBox="0 0 123 123" version="1.1" xmlns="http://www.w3.org/2000/svg" xmlns:xlink="http://www.w3.org/1999/xlink" xml:space="preserve" xmlns:serif="http://www.serif.com/" style="fill-rule:evenodd;clip-rule:evenodd;stroke-linejoin:round;stroke-miterlimit:2;"><rect id="TA" x="-0" y="0" width="122.88" height="122.88" style="fill:none;"/><g><path d="M25.078,41.495l13.604,-0l0,57.525l13.013,-0l-0,-57.525l13.604,-0l0,-9.588l-40.221,0l-0,9.588Z" style="fill:#8739ff;fill-rule:nonzero;"/><path d="M83.187,31.907l-15.489,0l-10.776,67.113l9.717,-0l1.828,-12.176l12.988,-0l1.828,12.176l10.679,-0l-10.775,-67.113Zm-8.37,11.889l0.192,-0l5.003,33.94l-10.198,-0l5.003,-33.94Z" style="fill:#ff6400;fill-rule:nonzero;"/><path d="M67.689,26.767c-0,0 0.006,0 0.009,0l15.489,0c2.534,0 4.693,1.835 5.093,4.328l10.775,67.113c0.239,1.486 -0.188,3.002 -1.168,4.147c-0.98,1.145 -2.415,1.805 -3.925,1.805l-10.679,0c-2.554,-0 -4.723,-1.863 -5.101,-4.38c-0,0 -1.171,-7.796 -1.17,-7.796l-4.101,-0l-1.171,7.796c-0.377,2.517 -2.547,4.38 -5.101,4.38l-27.957,0c-2.849,-0 -5.158,-2.301 -5.158,-5.14l0,-52.385l-8.446,-0c-2.849,-0 -5.158,-2.301 -5.158,-5.14l-0,-9.588c-0,-2.838 2.309,-5.14 5.158,-5.14l3.652,0l-0.8,-0.693c-1.784,-1.548 -2.068,-4.211 -0.65,-6.1c4.534,-6.043 8.233,-7.914 12.561,-7.914c2.166,0 4.403,0.546 8.322,2.872c0.007,0.005 0.015,0.009 0.022,0.014c1.038,0.624 1.566,1.041 2.035,1.193c0.398,-0.427 1.169,-1.272 1.851,-2.122c0.784,-0.978 1.941,-1.585 3.191,-1.674c1.251,-0.089 2.481,0.348 3.396,1.205l3.916,3.668c1.676,1.57 1.901,4.15 0.522,5.987c-1.06,1.412 -2.08,2.59 -3.082,3.564l7.675,0Zm-27.572,0l0.05,0c-0.013,-0.004 -0.026,-0.008 -0.039,-0.012c-0.004,0.004 -0.007,0.008 -0.011,0.012Zm22.357,5.14l-37.396,0l-0,9.588l13.604,-0l0,57.525l13.013,-0l-0,-57.525l9.24,-0l1.539,-9.588Zm20.713,0l-15.489,0l-10.776,67.113l9.717,-0l1.828,-12.176l12.988,-0l1.828,12.176l10.679,-0l-10.775,-67.113Zm-8.37,11.889l0.192,-0l5.003,33.94l-10.198,-0l5.003,-33.94Zm-40.022,-17.724c2.41,-3.126 3.389,-3.873 4.971,-3.873c1.13,0 2.259,0.408 4.745,1.902c2.862,1.699 4.443,2.242 6.025,2.242c3.313,0 5.799,-1.63 8.962,-5.842l-3.916,-3.669c-2.561,3.193 -3.389,3.872 -4.971,3.872c-1.13,0 -2.259,-0.407 -4.745,-1.902c-2.862,-1.698 -4.443,-2.242 -6.025,-2.242c-3.163,0 -5.648,1.699 -8.962,6.115l3.916,3.397Z"/><path d="M34.795,26.072c2.41,-3.126 3.389,-3.873 4.971,-3.873c1.13,0 2.259,0.408 4.745,1.902c2.862,1.699 4.443,2.242 6.025,2.242c3.313,0 5.799,-1.63 8.962,-5.842l-3.916,-3.669c-2.561,3.193 -3.389,3.872 -4.971,3.872c-1.13,0 -2.259,-0.407 -4.745,-1.902c-2.862,-1.698 -4.443,-2.242 -6.025,-2.242c-3.163,0 -5.648,1.699 -8.962,6.115l3.916,3.397Z" style="fill:#ff6400;fill-rule:nonzero;"/></g></svg>