<?xml version="1.0" encoding="UTF-8" standalone="no"?><!DOCTYPE svg PUBLIC "-//W3C//DTD SVG 1.1//EN" "http://www.w3.org/Graphics/SVG/1.1/DTD/svg11.dtd"><svg width="100%" height="100%" viewBox="0 0 123 123" version="1.1" xmlns="http://www.w3.org/2000/svg" xmlns:xlink="http://www.w3.org/1999/xlink" xml:space="preserve" xmlns:serif="http://www.serif.com/" style="fill-rule:evenodd;clip-rule:evenodd;stroke-linejoin:round;stroke-miterlimit:2;"><rect id="TA" x="-0" y="0" width="122.88" height="122.88" style="fill:none;"/><clipPath id="_clip1"><rect x="-0" y="0" width="122.88" height="122.88"/></clipPath><g clip-path="url(#_clip1)"><g><path d="M15.487,39.272l18.151,0l0,76.75l17.362,0l-0,-76.75l18.15,0l0,-12.792l-53.663,0l0,12.792Z" style="fill:#8739ff;fill-rule:nonzero;"/><path d="M93.016,26.48l-20.666,0l-14.376,89.542l12.965,0l2.438,-16.245l17.329,-0l2.439,16.245l14.248,0l-14.377,-89.542Zm-11.167,15.862l0.257,0l6.675,45.283l-13.607,-0l6.675,-45.283Z" style="fill:#ff6400;fill-rule:nonzero;"/><path d="M72.339,19.622c-0,0 0.008,0 0.011,0l20.666,0c3.381,0 6.261,2.448 6.796,5.775l14.376,89.542c0.318,1.982 -0.251,4.005 -1.559,5.533c-1.307,1.528 -3.221,2.408 -5.236,2.408l-14.248,0c-3.408,-0 -6.302,-2.485 -6.806,-5.843c-0,-0 -1.562,-10.402 -1.562,-10.402l-5.471,-0l-1.562,10.402c-0.504,3.358 -3.398,5.843 -6.805,5.843l-37.301,0c-3.801,-0 -6.882,-3.07 -6.882,-6.858l0,-69.892l-11.269,-0c-3.8,-0 -6.881,-3.07 -6.881,-6.858l-0,-12.792c-0,-3.787 3.081,-6.858 6.881,-6.858l4.872,0l-1.066,-0.925c-2.38,-2.064 -2.759,-5.618 -0.868,-8.138c6.05,-8.063 10.984,-10.559 16.76,-10.559c2.889,0 5.874,0.729 11.102,3.832c0.01,0.006 0.02,0.012 0.03,0.018c1.385,0.833 2.089,1.389 2.715,1.593c0.531,-0.57 1.56,-1.698 2.47,-2.833c1.046,-1.304 2.589,-2.114 4.257,-2.232c1.668,-0.119 3.311,0.463 4.531,1.607l5.225,4.895c2.236,2.094 2.536,5.537 0.697,7.987c-1.416,1.884 -2.776,3.456 -4.113,4.755l10.24,0Zm-36.787,0l0.067,0c-0.017,-0.005 -0.034,-0.011 -0.052,-0.016c-0.005,0.005 -0.01,0.011 -0.015,0.016Zm29.829,6.858l-49.894,0l0,12.792l18.151,0l0,76.75l17.362,0l-0,-76.75l12.328,0l2.053,-12.792Zm27.635,0l-20.666,0l-14.376,89.542l12.965,0l2.438,-16.245l17.329,-0l2.439,16.245l14.248,0l-14.377,-89.542Zm-11.167,15.862l0.257,0l6.675,45.283l-13.607,-0l6.675,-45.283Zm-53.397,-23.648c3.216,-4.169 4.522,-5.166 6.632,-5.166c1.507,-0 3.015,0.543 6.33,2.538c3.819,2.266 5.929,2.991 8.039,2.991c4.421,-0 7.737,-2.176 11.958,-7.796l-5.225,-4.895c-3.417,4.261 -4.522,5.167 -6.632,5.167c-1.508,0 -3.015,-0.544 -6.331,-2.538c-3.818,-2.266 -5.928,-2.991 -8.038,-2.991c-4.221,-0 -7.537,2.266 -11.958,8.158l5.225,4.532Z"/><path d="M28.452,18.694c3.216,-4.169 4.522,-5.166 6.632,-5.166c1.507,-0 3.015,0.543 6.33,2.538c3.819,2.266 5.929,2.991 8.039,2.991c4.421,-0 7.737,-2.176 11.958,-7.796l-5.225,-4.895c-3.417,4.261 -4.522,5.167 -6.632,5.167c-1.508,0 -3.015,-0.544 -6.331,-2.538c-3.818,-2.266 -5.928,-2.991 -8.038,-2.991c-4.221,-0 -7.537,2.266 -11.958,8.158l5.225,4.532Z" style="fill:#ff6400;fill-rule:nonzero;"/></g></g></svg>